<?xml version="1.0" encoding="UTF-8"?>
<svg width="512" height="512" viewBox="0 0 512 512" fill="none" xmlns="http://www.w3.org/2000/svg">
  <rect width="512" height="512" rx="100" fill="#2C6E49"/>
  <path d="M256 120C182.1 120 120 182.1 120 256C120 329.9 182.1 392 256 392C329.9 392 392 329.9 392 256C392 182.1 329.9 120 256 120ZM256 360C199.8 360 152 312.2 152 256C152 199.8 199.8 152 256 152C312.2 152 360 199.8 360 256C360 312.2 312.2 360 256 360Z" fill="white"/>
  <path d="M256 184C217.4 184 184 217.4 184 256C184 294.6 217.4 328 256 328C294.6 328 328 294.6 328 256C328 217.4 294.6 184 256 184ZM256 296C235.1 296 216 276.9 216 256C216 235.1 235.1 216 256 216C276.9 216 296 235.1 296 256C296 276.9 276.9 296 256 296Z" fill="white"/>
  <path d="M256 232C244.9 232 236 240.9 236 252C236 263.1 244.9 272 256 272C267.1 272 276 263.1 276 252C276 240.9 267.1 232 256 232Z" fill="white"/>
  <path d="M256 120V152M256 360V392M120 256H152M360 256H392M171.5 171.5L194.3 194.3M317.7 317.7L340.5 340.5M171.5 340.5L194.3 317.7M317.7 194.3L340.5 171.5" stroke="white" stroke-width="16" stroke-linecap="round"/>
</svg>
